#!OML:ASF X:\für Bonn\!DataBase\2005_08_12_Daniel\c3d\Daniel.ASF
:FULLY-SPECIFIED
:DEGREES
32
root -3.23636 16.1428 -3.13343 318.986 -80.699 -331.294
lowerback 26.2345 -2.61503 -2.12784
upperback 3.24035 -4.73879 -3.49763
thorax -11.1143 -2.32395 -1.03039
lowerneck 9.70538 3.81186 -1.37985
upperneck 3.73581 4.76779 0.817067
head -0.496833 2.2892 0.323274
rclavicle 2.48481e-014 -3.57812e-015
rhumerus 57.2231 -2.72482 -100.757
rradius 8.04086
rwrist 68.8043
rhand -20.3927 11.5209
rfingers 7.12502
rthumb 5.96064 -18.3752
lclavicle 2.48481e-014 -3.57812e-015
lhumerus 62.1262 -4.79921 84.6333
lradius 8.55182
lwrist -56.6004
lhand -15.9572 3.55175
lfingers 7.12502
lthumb 10.2415 33.2824
rfemur -8.35582 -11.9618 7.87161
rtibia 52.9894
rfoot -30.603 2.63926
rtoes -13.9907
lfemur -16.9718 -4.93725 -18.9982
ltibia 54.1007
lfoot -26.1471 -7.02309
ltoes -2.13942
33
root -3.21328 16.0361 -3.12857 318.711 -80.6729 -331.231
lowerback 26.908 -2.63991 -2.0816
upperback 3.32844 -4.79519 -3.51376
thorax -11.3738 -2.35102 -1.02757
lowerneck 9.92451 3.68065 -1.54661
upperneck 3.41657 4.57879 0.945685
head -0.640825 2.19335 0.389597
rclavicle 1.71452e-014 4.77083e-015
rhumerus 57.4986 -2.58366 -100.62
rradius 8.05266
rwrist 68.9004
rhand -20.6129 11.4698
rfingers 7.12502
rthumb 5.74808 -18.4323
lclavicle 1.71452e-014 4.77083e-015
lhumerus 62.3684 -4.77007 84.6434
lradius 8.64712
lwrist -56.7538
lhand -15.8617 3.4569
lfingers 7.12502
lthumb 10.3336 33.183
rfemur -9.45436 -12.9024 7.33906
rtibia 55.2136
rfoot -30.4732 3.75332
rtoes -14.2073
lfemur -17.8806 -4.47232 -18.9195
ltibia 55.851
lfoot -26.5093 -7.60827
ltoes -2.10525
34
root -3.18947 15.9219 -3.12293 318.445 -80.6559 -331.184
lowerback 27.5976 -2.66416 -2.0267
upperback 3.40845 -4.84701 -3.51968
thorax -11.6486 -2.37548 -1.01863
lowerneck 10.182 3.56281 -1.73558
upperneck 3.08272 4.40394 1.07031
head -0.797029 2.10415 0.458447
rclavicle 6.11263e-015 2.38542e-015
rhumerus 57.7253 -2.45967 -100.451
rradius 8.16764
rwrist 69.1045
rhand -20.7232 11.408
rfingers 7.12502
rthumb 5.64156 -18.4969
lclavicle 6.11263e-015 2.38542e-015
lhumerus 62.5832 -4.73879 84.6733
lradius 8.76486
lwrist -56.938
lhand -15.7298 3.38858
lfingers 7.12502
lthumb 10.4608 33.1083
rfemur -10.5745 -13.7882 6.81779
rtibia 57.4986
rfoot -30.3551 4.77538
rtoes -14.2813
lfemur -18.8163 -3.99397 -18.8352
ltibia 57.6543
lfoot -26.8837 -8.15579
ltoes -2.17852
35
root -3.16568 15.8023 -3.11732 318.124 -80.6437 -331.068
lowerback 28.2525 -2.68336 -1.97127
upperback 3.49738 -4.89103 -3.53326
thorax -11.8937 -2.39737 -1.0228
lowerneck 10.4358 3.45751 -1.91076
upperneck 2.74356 4.24712 1.19159
head -0.954725 2.02419 0.52469
rclavicle -3.74212e-014 -5.40694e-014
rhumerus 57.9515 -2.33583 -100.294
rradius 8.33028
rwrist 69.368
rhand -20.7715 11.3124
rfingers 7.12502
rthumb 5.59497 -18.5937
lclavicle -3.74212e-014 -5.40694e-014
lhumerus 62.8707 -4.72661 84.701
lradius 8.79228
lwrist -57.2143
lhand -15.6611 3.26026
lfingers 7.12502
lthumb 10.5271 32.9766
rfemur -11.7611 -14.6357 6.29688
rtibia 59.8527
rfoot -30.211 5.74836
rtoes -14.3017
lfemur -19.7934 -3.53252 -18.7539
ltibia 59.4996
lfoot -27.2485 -8.73449
ltoes -2.16293
36
root -3.14233 15.6744 -3.1124 317.853 -80.6361 -331.015
lowerback 28.9065 -2.70761 -1.92347
upperback 3.57266 -4.94259 -3.542
thorax -12.1513 -2.42159 -1.01382
lowerneck 10.7648 3.36344 -2.05021
upperneck 2.40282 4.10526 1.26509
head -1.1246 1.95204 0.569594
rclavicle 2.67862e-014 2.5842e-014
rhumerus 58.1727 -2.22359 -100.13
rradius 8.46813
rwrist 69.625
rhand -20.8066 11.2867
rfingers 7.12502
rthumb 5.56107 -18.6204
lclavicle 2.67862e-014 2.5842e-014
lhumerus 63.1309 -4.6996 84.7228
lradius 8.8009
lwrist -57.5253
lhand -15.5682 3.20827
lfingers 7.12502
lthumb 10.6167 32.9201
rfemur -12.9594 -15.4651 5.77706
rtibia 62.2637
rfoot -29.9927 6.74195
rtoes -14.0493
lfemur -20.7981 -3.05983 -18.6546
ltibia 61.4113
lfoot -27.6207 -9.28366
ltoes -2.22039
37
root -3.11914 15.5385 -3.10732 317.521 -80.6215 -330.915
lowerback 29.5858 -2.72736 -1.8728
upperback 3.65707 -4.98898 -3.555
thorax -12.4099 -2.44397 -1.01208
lowerneck 10.9336 3.26927 -2.17406
upperneck 2.15176 3.96813 1.33461
head -1.23805 1.88305 0.614295
rclavicle 1.77912e-014 1.59028e-014
rhumerus 58.4599 -2.09734 -99.9765
rradius 8.59691
rwrist 69.8543
rhand -20.7425 11.2328
rfingers 7.12502
rthumb 5.62301 -18.6726
lclavicle 1.77912e-014 1.59028e-014
lhumerus 63.4791 -4.68512 84.7503
lradius 8.70741
lwrist -57.9184
lhand -15.5653 3.12744
lfingers 7.12502
lthumb 10.6195 32.8391
rfemur -14.1646 -16.2904 5.22792
rtibia 64.727
rfoot -29.6917 7.74292
rtoes -13.7618
lfemur -21.834 -2.56274 -18.5618
ltibia 63.3833
lfoot -27.9807 -9.83879
ltoes -2.30609
38
root -3.09657 15.3992 -3.10302 317.28 -80.6118 -330.908
lowerback 30.4096 -2.74698 -1.83791
upperback 3.3343 -5.05046 -3.61635
thorax -12.3925 -2.44862 -0.91925
lowerneck 10.9177 3.1797 -2.27773
upperneck 2.0337 3.8422 1.38235
head -1.27538 1.82052 0.652037
rclavicle 2.35063e-014 3.89618e-014
rhumerus 58.802 -1.98118 -99.8025
rradius 8.67639
rwrist 70.0491
rhand -20.6977 11.2205
rfingers 7.12502
rthumb 5.66625 -18.6838
lclavicle 2.35063e-014 3.89618e-014
lhumerus 63.897 -4.65551 84.7817
lradius 8.52599
lwrist -58.3421
lhand -15.5711 3.08439
lfingers 7.12502
lthumb 10.6139 32.7963
rfemur -15.3804 -17.0872 4.68708
rtibia 67.2257
rfoot -29.2982 8.75457
rtoes -13.2211
lfemur -22.9137 -2.04982 -18.4328
ltibia 65.4119
lfoot -28.3365 -10.4054
ltoes -2.39586
39
root -3.07671 15.2572 -3.09863 316.929 -80.6334 -330.784
lowerback 31.1327 -2.7524 -1.77748
upperback 3.37189 -5.07569 -3.62668
thorax -12.6688 -2.45907 -0.921517
lowerneck 10.8331 3.08465 -2.31084
upperneck 1.98434 3.71788 1.41218
head -1.27612 1.7594 0.67345
rclavicle 4.72114e-015 2.78299e-015
rhumerus 59.2178 -1.8808 -99.6429
rradius 8.69633
rwrist 70.1239
rhand -20.6073 11.2326
rfingers 7.12502
rthumb 5.75355 -18.6693
lclavicle 4.72114e-015 2.78299e-015
lhumerus 64.3825 -4.65637 84.8105
lradius 8.2474
lwrist -58.7682
lhand -15.6557 2.99577
lfingers 7.12502
lthumb 10.5323 32.7119
rfemur -16.6328 -17.8344 4.1525
rtibia 69.7606
rfoot -28.868 9.7529
rtoes -12.7191
lfemur -24.0119 -1.48966 -18.2817
ltibia 67.4764
lfoot -28.6458 -11.008
ltoes -2.52201
40
root -3.05817 15.1099 -3.09438 316.562 -80.6308 -330.64
lowerback 31.829 -2.76803 -1.73305
upperback 3.41412 -5.11811 -3.63979
thorax -12.9236 -2.47715 -0.912922
lowerneck 10.692 2.99457 -2.34357
upperneck 1.98402 3.60046 1.41594
head -1.25045 1.70225 0.687126
rclavicle 2.78299e-014 7.55382e-015
rhumerus 59.6788 -1.75765 -99.4897
rradius 8.68279
rwrist 70.1378
rhand -20.4938 11.29
rfingers 7.12502
rthumb 5.86306 -18.6088
lclavicle 2.78299e-014 7.55382e-015
lhumerus 64.925 -4.61995 84.8259
lradius 7.91703
lwrist -59.1858
lhand -15.7549 2.97102
lfingers 7.12502
lthumb 10.4366 32.692
rfemur -17.8927 -18.6004 3.56189
rtibia 72.3357
rfoot -28.4264 10.7754
rtoes -12.2458
lfemur -25.1387 -0.945412 -18.1324
ltibia 69.5759
lfoot -28.9106 -11.6976
ltoes -2.53317
41
root -3.04222 14.9581 -3.09027 316.329 -80.6492 -330.642
lowerback 32.4992 -2.78715 -1.6753
upperback 3.45827 -5.15604 -3.63755
thorax -13.1604 -2.49377 -0.89798
lowerneck 10.6069 2.92046 -2.35012
upperneck 1.95621 3.50552 1.40037
head -1.24275 1.65656 0.688376
rclavicle 2.00276e-014 1.59028e-015
rhumerus 60.1764 -1.64298 -99.3362
rradius 8.59781
rwrist 69.9877
rhand -20.3955 11.4134
rfingers 7.12502
rthumb 5.95795 -18.4828
lclavicle 2.00276e-014 1.59028e-015
lhumerus 65.4669 -4.5946 84.8581
lradius 7.56873
lwrist -59.5508
lhand -15.9112 2.90966
lfingers 7.12502
lthumb 10.2859 32.6381
rfemur -19.1227 -19.3613 2.99424
rtibia 74.9025
rfoot -28.0028 11.7116
rtoes -11.7745
lfemur -26.2777 -0.402026 -17.9281
ltibia 71.7125
lfoot -29.0856 -12.4225
ltoes -2.37097
